<svg width="41" height="49" viewBox="0 0 41 49" fill="none" xmlns="http://www.w3.org/2000/svg">
<path d="M39 20.5C39 34.8889 20.5 47.2222 20.5 47.2222C20.5 47.2222 2 34.8889 2 20.5C2 15.5935 3.9491 10.8879 7.41852 7.41852C10.8879 3.9491 15.5935 2 20.5 2C25.4065 2 30.1121 3.9491 33.5815 7.41852C37.0509 10.8879 39 15.5935 39 20.5Z" stroke="#4B2DA6" stroke-width="3" stroke-linecap="round" stroke-linejoin="round"/>
<path d="M20.5 26.6666C23.9058 26.6666 26.6667 23.9057 26.6667 20.4999C26.6667 17.0942 23.9058 14.3333 20.5 14.3333C17.0943 14.3333 14.3334 17.0942 14.3334 20.4999C14.3334 23.9057 17.0943 26.6666 20.5 26.6666Z" stroke="#4B2DA6" stroke-width="3" stroke-linecap="round" stroke-linejoin="round"/>
</svg>
