<svg width="42" height="42" viewBox="0 0 42 42" fill="none" xmlns="http://www.w3.org/2000/svg">
<path d="M39.69 28.8867C36.82 28.8867 34.0433 28.42 31.4533 27.58C30.6367 27.3 29.7267 27.51 29.0967 28.14L25.4333 32.7367C18.83 29.5867 12.6467 23.6367 9.35667 16.8L13.9067 12.9267C14.5367 12.2733 14.7233 11.3633 14.4667 10.5467C13.6033 7.95667 13.16 5.18 13.16 2.31C13.16 1.05 12.11 0 10.85 0H2.77667C1.51667 0 0 0.56 0 2.31C0 23.9867 18.0367 42 39.69 42C41.3467 42 42 40.53 42 39.2467V31.1967C42 29.9367 40.95 28.8867 39.69 28.8867Z" fill="#4B2DA6"/>
</svg>
